<svg xmlns="http://www.w3.org/2000/svg" width="120" height="36" viewBox="0 0 120 36">
    <g fill="#00C496" fill-rule="evenodd">
        <path d="M19.314 19.144a.675.675 0 0 1-.411.167H6.213s-.357.018-.501-.093c-.244-.186-.205-.446-.205-.446 0-1.613 1.407-6.458 6.942-6.458 5.955 0 6.995 4.845 6.995 6.458 0 0 .03.21-.13.372M12.449 7.47C3.79 7.47 0 14.612 0 21.463c0 7.6 4.33 13.993 12.99 13.993 6.496 0 10.951-3.766 11.492-8.071 0 0 .048-.258-.117-.41-.15-.142-.424-.13-.424-.13h-4.33s-.185.011-.324.149c-.14.138-.217.39-.217.39-1.083 2.69-3.914 3.228-6.08 3.228-6.495 0-7.483-5.102-7.483-6.177 0 0-.017-.152.153-.35.145-.164.554-.188.554-.188h17.99s.257-.006.398-.153c.15-.16.145-.386.145-.386v-1.895c0-7.533-3.637-13.993-12.298-13.993M46.145 23.784v1.615c0 3.45-2.366 5.38-7.037 5.38-3.248 0-4.87-1.076-4.87-3.767 0-2.69 2.163-4.305 7.036-4.305 2.705 0 4.328.539 4.328.539s.187.055.33.173c.097.082.129.112.163.173.059.101.05.192.05.192m-5.55-16.207c-8.117 0-10.824 4.304-10.824 8.071 0 0-.01.22.163.412.119.132.376.127.376.127h4.332s.163.008.36-.175a.66.66 0 0 0 .128-.168c.047-.08.052-.196.052-.196.087-2.097 1.624-3.227 5.413-3.227 3.79 0 5.413 1.075 5.413 4.843v1.075s.016.247-.13.407c-.175.196-.411.133-.411.133s-2.165-.54-4.872-.54c-7.036 0-11.908 2.691-11.908 8.611 0 5.383 3.902 8.455 9.36 8.455 5.445 0 6.742-1.264 7.663-2.18.208-.207.412-.461.412-.461l-.006 1.721s.031.228.19.388c.16.158.35.15.35.15h4.224s.227-.008.376-.158c.164-.164.164-.38.164-.38V19.417c0-8.074-2.706-11.84-10.825-11.84M69.26 19.417c-5.412-1.078-7.578-1.616-7.578-4.307 0-2.151 2.166-2.689 4.872-2.689 3.79 0 4.87 1.613 4.87 3.227 0 0-.006.254.126.389.17.174.417.15.417.15h4.33s.211.007.376-.169c.171-.185.166-.37.166-.37 0-5.38-4.33-8.07-10.285-8.07-7.576 0-10.284 3.765-10.284 7.532 0 4.845 3.25 6.997 8.66 8.073 5.413 1.075 7.037 1.617 7.037 4.306 0 2.154-1.624 3.23-5.413 3.23-3.79 0-5.412-1.615-5.412-4.306 0 0 .006-.218-.174-.374-.188-.162-.367-.164-.367-.164h-4.33s-.212.017-.364.164c-.175.169-.177.374-.177.374 0 5.92 3.79 9.15 10.824 9.15 7.578 0 10.827-3.77 10.827-8.074 0-4.844-2.707-6.996-8.12-8.072M87.626 8.28h-4.33s-.205 0-.376.171c-.17.168-.165.366-.165.366V34.32s-.01.192.174.378c.182.184.367.162.367.162h4.33s.201 0 .385-.185c.152-.153.156-.355.156-.355V8.817s.02-.151-.17-.354c-.167-.18-.371-.183-.371-.183M106.415 30.482c-4.549 0-8.233-3.665-8.233-8.186 0-4.52 3.684-8.187 8.233-8.187 4.548 0 8.233 3.667 8.233 8.187 0 4.521-3.685 8.186-8.233 8.186m1.515-20.888a12.963 12.963 0 0 0-1.81-.094L113.486.61s.083-.101-.017-.277c-.068-.12-.266-.094-.266-.094l-5.549.002s-.505-.02-.773.07c-.266.091-.466.295-.466.295L97.776 11.14c-1.2 1.493-2.214 2.974-3.044 4.458-.832 1.484-1.366 3.185-1.602 5.108-.235 1.927-.128 3.695.32 5.317.45 1.624 1.187 3.039 2.215 4.241a19.52 19.52 0 0 0 2.19 2.182 13.069 13.069 0 0 0 4.605 2.598c.497.162 1.014.293 1.56.387.292.055.587.099.884.13 7.305.792 13.93-4.275 14.821-11.53.89-7.254-4.5-13.55-11.795-14.438"/>
    </g>
</svg>
